<?xml version="1.0" standalone="no"?>
<!DOCTYPE svg PUBLIC "-//W3C//DTD SVG 20010904//EN"
 "http://www.w3.org/TR/2001/REC-SVG-20010904/DTD/svg10.dtd">
<svg version="1.0" xmlns="http://www.w3.org/2000/svg"
 width="300.000000pt" height="173.000000pt" viewBox="0 0 300.000000 173.000000"
 preserveAspectRatio="xMidYMid meet">

<g transform="translate(0.000000,173.000000) scale(0.100000,-0.100000)"
fill="#000000" stroke="none">
<path d="M1295 1571 c-131 -32 -224 -127 -270 -274 -25 -81 -37 -101 -114
-182 -26 -27 -58 -66 -71 -85 -13 -19 -27 -37 -30 -40 -3 -3 -16 -20 -29 -38
l-23 -33 -35 31 c-29 26 -42 31 -76 28 -39 -3 -44 -7 -64 -48 -26 -54 -46
-144 -41 -184 5 -46 29 -54 82 -27 43 21 74 21 61 0 -9 -14 23 -11 48 6 l22
14 -3 -99 c-3 -88 -1 -105 21 -153 13 -29 38 -69 56 -89 40 -46 126 -88 196
-95 30 -3 55 -10 55 -15 0 -5 6 -6 13 -1 6 4 35 9 63 10 65 3 250 64 334 110
115 64 223 141 305 218 44 41 86 75 93 75 8 0 12 -3 10 -7 -2 -5 -10 -21 -18
-36 -19 -39 -3 -62 41 -62 19 0 40 -4 47 -8 6 -5 16 -6 21 -3 4 3 51 6 102 6
52 0 101 0 109 0 8 1 42 3 75 5 33 1 65 -1 71 -6 14 -12 50 18 58 47 4 14 0
28 -11 39 -16 17 -16 19 7 38 25 19 25 19 28 0 2 -16 11 -20 48 -21 36 0 50 5
69 26 29 31 32 58 8 84 -18 20 -20 85 -2 102 12 13 12 26 -1 26 -9 0 -23 -41
-36 -107 -5 -27 -3 -32 17 -35 18 -2 24 -9 24 -28 0 -23 -4 -25 -48 -28 -35
-2 -49 1 -53 12 -5 13 20 158 34 195 5 14 3 14 -10 3 -13 -10 -17 -10 -21 0
-2 7 -14 -32 -26 -87 -13 -55 -24 -106 -27 -112 -4 -14 -40 -18 -48 -5 -3 4 6
56 18 114 l23 107 -22 -15 c-18 -11 -26 -34 -40 -102 -23 -116 -21 -112 -50
-112 -30 0 -30 1 -5 114 24 107 24 112 6 97 -11 -9 -15 -7 -18 7 -3 11 -17 21
-31 24 -24 5 -85 -14 -97 -30 -3 -4 -16 -16 -29 -27 l-25 -20 21 35 c11 19 37
62 57 95 20 33 41 78 47 100 6 22 14 47 19 56 16 32 0 142 -30 205 -56 115
-150 168 -295 166 -49 -1 -97 -3 -105 -5 -17 -4 -74 -14 -125 -23 -20 -3 -33
-9 -30 -15 8 -12 7 -12 -66 7 -74 19 -132 13 -207 -23 -108 -51 -253 -220
-287 -335 -11 -40 -31 -68 -83 -122 l-69 -71 -23 -112 c-22 -105 -25 -113 -47
-113 -27 0 -29 15 -9 108 7 34 9 62 5 62 -10 0 -75 -77 -107 -127 -15 -24 -31
-42 -36 -40 -4 1 -19 36 -31 76 -13 40 -26 75 -28 78 -3 2 -11 -29 -17 -70
-15 -90 -19 -98 -48 -90 -27 7 -27 5 1 123 20 83 25 95 45 98 37 5 68 -22 82
-72 l12 -45 41 52 c23 29 65 83 93 120 28 37 79 97 113 132 55 56 63 70 71
118 18 111 85 208 173 251 73 36 188 51 270 37 90 -16 100 -13 37 9 -56 21
-173 26 -235 11z m764 -72 c96 -48 161 -152 161 -256 0 -74 -59 -203 -135
-298 -30 -37 -32 -43 -21 -73 l11 -33 34 45 c37 48 82 76 126 76 31 0 31 9 2
-155 -12 -65 -14 -70 -40 -73 -32 -4 -33 3 -12 98 20 96 15 94 -66 -25 -22
-33 -45 -60 -51 -60 -6 0 -22 30 -35 68 -14 37 -29 67 -33 67 -4 0 -11 -26
-15 -57 -4 -32 -11 -66 -16 -75 -11 -20 -34 -24 -44 -8 -7 12 22 176 36 202
12 22 42 23 63 3 8 -8 17 -15 19 -15 3 0 20 35 37 77 46 111 52 210 17 286
-42 92 -133 135 -257 122 -185 -20 -468 -143 -582 -253 -89 -85 -1 43 99 144
105 107 182 151 329 188 130 32 135 33 230 35 72 1 88 -2 143 -30z m-539 -19
c17 -11 18 -10 -47 -45 -47 -25 -123 -93 -188 -170 -32 -38 -99 -155 -92 -162
3 -3 32 11 64 32 32 20 67 42 78 48 11 7 22 15 25 19 10 13 194 96 270 121
111 38 290 67 290 47 0 -4 11 -7 24 -7 82 0 141 -88 140 -208 0 -47 -7 -88
-22 -125 -21 -53 -24 -56 -57 -56 -22 0 -44 -9 -62 -24 -16 -14 -25 -21 -20
-16 10 13 -22 46 -44 46 -9 0 -39 -15 -67 -34 l-50 -33 -31 33 c-29 33 -63 43
-87 26 -6 -4 -23 -29 -37 -56 l-26 -48 -11 43 c-16 59 -26 69 -70 69 -33 0
-43 -6 -70 -40 -37 -47 -52 -51 -44 -12 9 43 -15 56 -98 55 -39 0 -81 -7 -94
-14 -19 -10 -27 -10 -36 -1 -17 17 -42 15 -69 -7 -24 -19 -25 -19 -53 5 -25
22 -26 27 -14 43 7 10 28 37 46 61 17 24 37 60 42 81 13 46 74 138 137 205 90
94 223 156 273 124z m-505 -600 c-16 -67 -15 -100 3 -100 25 0 47 34 62 96 16
62 20 69 44 72 31 4 30 7 11 -72 -24 -94 -34 -113 -70 -130 -39 -19 -59 -20
-86 -5 -34 18 -39 50 -21 130 15 63 21 74 42 79 14 4 27 5 29 4 2 -2 -4 -35
-14 -74z m348 74 c14 -14 -20 -69 -76 -119 l-60 -55 56 0 c57 0 63 -4 51 -34
-5 -13 -24 -16 -105 -16 -90 0 -99 2 -99 18 0 11 33 47 80 86 44 38 80 70 80
73 0 3 -22 3 -49 0 -55 -7 -61 -4 -54 23 4 16 16 20 77 23 39 1 76 4 82 5 6 1
13 -1 17 -4z m172 -4 c7 -12 35 -173 35 -203 0 -29 -54 -19 -58 11 -3 19 -9
22 -46 22 -35 0 -45 -4 -54 -24 -7 -16 -19 -23 -36 -23 -14 0 -26 2 -26 5 0 6
87 167 108 200 15 23 65 31 77 12z m156 0 c22 -12 49 -61 49 -89 0 -16 13 -7
58 39 43 44 65 60 85 60 32 0 32 0 4 -119 -22 -95 -44 -128 -67 -105 -8 8 -7
29 4 75 8 35 13 66 11 68 -2 2 -25 -29 -50 -68 -25 -39 -50 -71 -54 -71 -4 0
-16 30 -26 68 -10 37 -21 71 -25 75 -4 5 -10 -16 -14 -45 -11 -82 -16 -96 -39
-102 -11 -3 -24 -3 -28 -1 -6 5 35 197 47 216 7 12 21 11 45 -1z m-306 -79
c-6 -33 -36 -71 -57 -71 -21 0 -19 6 21 57 29 37 42 42 36 14z m-568 -77 c-3
-20 -1 -60 4 -90 29 -158 120 -243 285 -267 166 -24 461 64 618 184 28 21 77
59 109 84 93 73 77 45 -23 -41 -106 -92 -213 -167 -308 -217 -211 -111 -469
-142 -589 -71 -52 30 -98 91 -115 148 -15 56 -15 190 1 254 15 59 27 70 18 16z
m1336 -16 c-2 -18 -6 -47 -9 -63 l-4 -31 -105 0 -105 0 37 38 c28 29 40 35 50
27 7 -7 13 -20 13 -30 0 -11 6 -19 14 -19 15 0 96 86 96 101 0 5 4 9 8 9 5 0
7 -15 5 -32z m-373 -58 c0 -36 -20 -57 -108 -115 -89 -57 -176 -92 -292 -116
-246 -53 -397 -22 -478 99 -18 27 -35 64 -38 83 -5 31 -3 36 20 47 38 17 59
15 74 -8 16 -25 47 -25 97 0 48 24 45 24 45 -1 0 -20 4 -20 137 -17 91 2 145
7 162 16 57 31 67 31 95 7 22 -19 35 -22 74 -19 26 3 60 14 75 25 28 20 42 19
42 -4 1 -17 37 -9 60 14 27 26 35 24 35 -11z m548 -27 c-6 -7 -17 -13 -24 -13
-16 0 -17 -9 -5 -28 6 -11 10 -10 15 4 3 9 9 14 13 11 3 -4 -2 -18 -12 -33
-13 -21 -19 -24 -26 -13 -5 8 -9 24 -9 37 0 12 -5 22 -11 22 -7 0 3 10 22 23
34 24 59 16 37 -10z m-78 -5 c0 -5 -7 -8 -16 -8 -8 0 -12 -4 -9 -10 3 -5 -3
-10 -14 -10 -12 0 -21 -7 -21 -15 0 -8 5 -15 11 -15 5 0 7 5 4 10 -3 6 -2 10
3 10 14 0 23 -28 11 -36 -33 -20 -54 38 -22 61 16 12 15 13 -9 8 -14 -3 -29 0
-32 6 -5 7 3 11 21 11 15 0 35 4 43 10 14 8 29 -3 30 -22z m-304 -33 c7 -18
-12 -45 -32 -45 -9 0 -14 11 -14 30 0 23 4 30 20 30 11 0 23 -7 26 -15z m54 5
c-21 -7 -22 -8 -5 -10 20 -1 20 -1 0 -10 -17 -7 -17 -9 -2 -9 24 -1 22 -21 -3
-21 -16 0 -20 7 -20 30 0 26 3 30 28 29 l27 -1 -25 -8z m57 3 c-17 -4 -17 -5
-1 -17 9 -7 14 -18 10 -24 -9 -15 -36 -16 -36 -1 0 5 5 7 10 4 6 -3 10 -1 10
4 0 6 -4 11 -10 11 -5 0 -10 7 -10 15 0 9 9 15 23 14 18 -1 18 -2 4 -6z m71
-19 c2 -13 -4 -24 -14 -28 -23 -9 -35 4 -27 32 7 29 37 25 41 -4z m132 -4 c0
-16 -4 -30 -10 -30 -11 0 -14 43 -3 53 11 12 13 8 13 -23z m115 20 c-20 -9
-20 -9 0 -10 20 -1 20 -1 0 -10 -17 -7 -17 -9 -2 -9 24 -1 22 -21 -2 -21 -25
0 -32 11 -24 38 3 14 13 22 27 21 20 0 20 -1 1 -9z"/>
<path d="M1471 871 c-27 -51 -27 -51 8 -51 28 0 29 1 24 43 -3 23 -7 44 -9 45
-1 2 -12 -14 -23 -37z"/>
<path d="M2118 326 c-83 -79 -151 -109 -257 -114 -141 -6 -268 33 -369 115
l-44 36 4 -28 c2 -15 12 -33 23 -39 11 -6 23 -16 27 -22 4 -6 21 -17 38 -24
16 -7 30 -16 30 -21 0 -5 11 -9 24 -9 14 0 28 -5 31 -10 3 -5 16 -10 29 -10
12 0 26 -3 29 -7 11 -10 64 -16 157 -17 76 0 92 3 151 32 64 31 129 85 170
144 11 15 19 28 17 28 -2 -1 -29 -25 -60 -54z"/>
<path d="M1546 310 c6 -6 44 -23 85 -37 101 -36 241 -38 346 -5 95 29 103 45
10 20 -109 -29 -265 -26 -363 7 -83 28 -93 30 -78 15z"/>
</g>
</svg>
